<svg width="28" height="29" fill="none" xmlns="http://www.w3.org/2000/svg"><path fill-rule="evenodd" clip-rule="evenodd" d="M10.325 18.474c.165.495.665.795 1.179.707l12.656-2.153c.436-.074.78-.412.86-.847l1.482-7.922a.5.5 0 00-.483-.592l-18.662-.32a.528.528 0 00-.51.694l3.478 10.433zm13.425 6.859a2.25 2.25 0 100-4.5 2.25 2.25 0 000 4.5zm-13 0a2.25 2.25 0 100-4.5 2.25 2.25 0 000 4.5zM2.454 3.56c.664-.142 1.563-.227 2.546-.227.983 0 1.882.085 2.546.227.327.07.619.16.839.27a1.2 1.2 0 01.33.237c.085.09.285.335.285.766s-.2.677-.285.766a1.2 1.2 0 01-.33.237c-.22.111-.512.2-.84.27-.663.142-1.562.227-2.545.227-.983 0-1.882-.085-2.546-.227a3.578 3.578 0 01-.839-.27 1.2 1.2 0 01-.33-.237A1.083 1.083 0 011 4.833c0-.43.2-.677.285-.766a1.2 1.2 0 01.33-.236c.22-.112.512-.2.84-.27z" fill="#CB11AB"/></svg>