<svg width="29" height="29" fill="none" xmlns="http://www.w3.org/2000/svg"><g clip-path="url(#clip0_13_122)"><path fill="#fff" d="M.5.333h28v28H.5z"/><path fill-rule="evenodd" clip-rule="evenodd" d="M20.296 17.833l2.889 2.889c.036.036.072.073.106.111H27a1.5 1.5 0 100-3h-6.704zm-.168-9a10.976 10.976 0 00-1.762-3H27a1.5 1.5 0 110 3h-6.872zm.745 3.987c0-.333-.014-.662-.043-.987H27a1.5 1.5 0 110 3h-6.31c.12-.653.183-1.326.183-2.013z" fill="#CCC"/><path fill-rule="evenodd" clip-rule="evenodd" d="M4.4 12.82a5.487 5.487 0 1110.973 0 5.487 5.487 0 01-10.973 0zm-3.5 0a8.987 8.987 0 1117.142 3.78c-.326.702-.255 1.553.293 2.1l3.435 3.436a1.58 1.58 0 01-2.234 2.235l-3.324-3.324c-.57-.57-1.466-.623-2.182-.25A8.987 8.987 0 01.9 12.82z" fill="#CCC"/></g><defs><clipPath id="clip0_13_122"><path fill="#fff" transform="translate(.5 .333)" d="M0 0h28v28H0z"/></clipPath></defs></svg>