<svg width="20" height="20" fill="none" xmlns="http://www.w3.org/2000/svg"><g fill-rule="evenodd" clip-rule="evenodd" fill="#F55123"><path d="M2.5 5a.5.5 0 01.5-.5h14a.5.5 0 010 1H3a.5.5 0 01-.5-.5z"/><path d="M3.458 4.5h13.048l-.865 11.193A2.5 2.5 0 0113.15 18H6.846a2.5 2.5 0 01-2.492-2.3L3.458 4.5zm1.084 1l.81 10.12A1.5 1.5 0 006.845 17h6.303a1.5 1.5 0 001.495-1.384L15.426 5.5H4.542z"/><path d="M13 5.5H7V3.469A1.47 1.47 0 018.469 2h3.062A1.47 1.47 0 0113 3.469V5.5zM8.469 3A.469.469 0 008 3.469V4.5h4V3.469A.469.469 0 0011.531 3H8.47z"/></g></svg>