<svg width="20" height="20" fill="none" xmlns="http://www.w3.org/2000/svg"><g fill-rule="evenodd" clip-rule="evenodd" fill="#CB11AB"><path d="M13.159 3.06l3.781 3.782L6.727 17.055l-3.992.798a.5.5 0 01-.588-.588l.798-3.992L13.16 3.06zM4.177 13.932l8.982-8.981 1.89 1.89-8.981 8.982-2.364.473.473-2.364z"/><path d="M15.995 7.787l-3.782-3.781 1.418-1.419a2.005 2.005 0 012.837 0l.945.946a2.006 2.006 0 010 2.836l-1.418 1.418zm.473-2.363a.668.668 0 000-.946l-.946-.945a.668.668 0 00-.945 0l-.473.473 1.89 1.89.474-.472z"/></g></svg>