<svg width="30" height="10" viewBox="0 0 30 10" fill="none" xmlns="http://www.w3.org/2000/svg">
<g id="mir">
<path id="Vector" d="M16.6813 1.84377L14.8645 5.7583H14.6806V1.00031H12.0852V9.00239H14.2372C14.8212 9.00239 15.3403 8.66717 15.589 8.14811L17.4166 4.24439H17.6005V9.00239H20.1959V1.00031H18.0114C17.4491 1.00031 16.9192 1.33553 16.6813 1.84377Z" fill="#319B42"/>
<path id="Vector_2" d="M6.97243 2.04923L5.90182 5.7583H5.71798L4.63656 2.04923C4.45271 1.42204 3.87956 1.00031 3.2307 1.00031H0.667725V9.00239H3.26315V4.24439H3.44699L4.93935 9.00239H6.66963L8.162 4.24439H8.34584V9.00239H10.9413V1.00031H8.37829C7.72943 1.00031 7.14546 1.42204 6.97243 2.04923Z" fill="#319B42"/>
<g id="Vector_3">
<path d="M21.3244 4.56739V9.00239H23.9207V6.40629H26.7116C27.9232 6.40629 28.9509 5.63828 29.3295 4.56739H21.3244Z" fill="#319B42"/>
<path d="M26.6358 1.00031H20.8591C21.2161 2.90411 22.882 4.24543 24.8833 4.24543H29.3727C29.4051 4.07235 29.4267 3.87765 29.4267 3.68294C29.4267 2.1361 28.1827 1.00031 26.6358 1.00031Z" fill="url(#paint0_linear_7_2400)"/>
</g>
</g>
<defs>
<linearGradient id="paint0_linear_7_2400" x1="20.8591" y1="2.62287" x2="29.4267" y2="2.62287" gradientUnits="userSpaceOnUse">
<stop stop-color="#00A3E1"/>
<stop offset="0.3042" stop-color="#009ADD"/>
<stop offset="0.7987" stop-color="#0082D4"/>
<stop offset="1" stop-color="#0076CF"/>
</linearGradient>
</defs>
</svg>
